<svg width="370" height="369" viewBox="0 0 370 369" fill="none" xmlns="http://www.w3.org/2000/svg">
<path d="M185 369C286.897 369 369.5 286.397 369.5 184.5C369.5 82.6035 286.897 0 185 0C83.1035 0 0.5 82.6035 0.5 184.5C0.5 286.397 83.1035 369 185 369Z" fill="#76C5B9"/>
<path d="M294.961 145.973C281.59 132.332 256.896 135.577 233.821 145.973C231.179 137.337 227.728 128.977 223.684 121.387C213.98 103.456 200.662 90.2 184.973 90.2C162.76 90.2 145.291 116.876 136.233 146.028C113.157 135.632 88.4099 132.442 75.0388 146.028C53.9039 167.589 73.8527 218.247 97.5217 245.088C118.279 268.684 152.138 286.285 178.018 287H179.527C180.66 287 181.792 286.945 182.87 286.835C183.625 286.835 184.326 286.78 185.027 286.67C185.728 286.78 186.429 286.835 187.13 286.835C188.208 286.945 189.34 287 190.472 287H192.036C217.861 286.285 251.721 268.684 272.532 245.088C296.147 218.247 316.096 167.589 294.961 146.028V145.973ZM109.545 233.977C87.4394 208.896 75.3623 168.964 86.4689 157.688C89.4343 154.663 94.2328 153.288 100.164 153.288C109.114 153.288 120.598 156.478 132.189 161.979C130.68 169.624 129.763 177.104 129.548 184.035C128.685 211.756 137.527 243.053 151.437 263.734C136.125 257.243 120.544 246.463 109.545 233.977ZM205.03 254.823C203.142 257.574 201.202 259.994 199.207 262.194C196.08 265.549 191.551 269.454 186.752 270.224C186.159 270.389 185.566 270.444 184.973 270.444C184.326 270.444 183.733 270.389 183.086 270.279H182.978C178.449 269.399 174.082 265.714 171.117 262.579C168.96 260.324 166.911 257.684 164.97 254.823C162.328 250.973 159.902 246.628 157.692 241.898C149.874 225.012 145.129 203.616 145.722 184.585C145.884 179.855 146.315 175.069 147.07 170.284C147.502 167.369 148.041 164.509 148.688 161.649C149.281 158.898 149.982 156.203 150.736 153.508C153.001 145.643 155.912 138.217 159.201 131.672C166.642 116.821 176.185 106.646 184.973 106.646C197.374 106.646 211.715 127.987 219.209 153.508C220.018 156.148 220.719 158.898 221.312 161.649C221.959 164.509 222.552 167.369 222.983 170.284C223.577 174.134 224.008 178.039 224.224 181.89C225.248 201.636 220.503 224.132 212.254 241.733C210.098 246.518 207.671 250.918 205.03 254.823ZM260.509 233.977C249.456 246.463 233.928 257.243 218.616 263.734C233.012 242.283 241.854 209.666 240.344 181.01C240.021 174.959 239.158 168.469 237.864 161.924C249.456 156.423 260.94 153.288 269.89 153.288C275.767 153.288 280.565 154.663 283.531 157.633C294.637 168.964 282.56 208.896 260.509 233.977Z" fill="#F9F9F9"/>
</svg>
