<svg width="150" height="150" viewBox="0 0 150 150" fill="none" xmlns="http://www.w3.org/2000/svg">
<path d="M131.702 71.1518C137.747 71.1518 142.647 66.2518 142.647 60.2074C142.647 54.1629 137.747 49.263 131.702 49.263C125.658 49.263 120.758 54.1629 120.758 60.2074C120.758 66.2518 125.658 71.1518 131.702 71.1518Z" fill="#76C5B9"/>
<path d="M148.204 92.0867L115.645 65.5637L115.671 61.3719C115.704 55.9825 111.362 51.4169 105.973 51.3835C49.5699 51.034 105.696 51.3835 6.537 51.3835C2.92646 51.3838 0 54.1409 0 57.7511C0 61.3614 2.92646 64.2881 6.537 64.2881H63.5545L63.5404 87.6635H37.9971C34.3868 87.6635 31.4601 90.59 31.4601 94.2005C31.4601 97.811 34.3866 100.737 37.9971 100.737H70.0736C73.6824 100.737 76.6082 97.8131 76.6106 94.2046C76.6106 94.2046 76.5913 70.8612 76.5913 67.5928L78.2497 76.5489L111.643 76.7557C108.479 71.8444 109.373 73.2319 108.033 71.1506L142.051 99.6427C144.137 101.342 147.206 101.029 148.905 98.9422C150.604 96.8557 150.291 93.7862 148.204 92.0867Z" fill="#76C5B9"/>
</svg>
