<svg width="90" height="91" viewBox="0 0 90 91" fill="none" xmlns="http://www.w3.org/2000/svg">
<g clip-path="url(#clip0_314_867)">
<path d="M44.973 15.8601C49.2146 15.8601 52.6531 12.4217 52.6531 8.18007C52.6531 3.93849 49.2146 0.5 44.973 0.5C40.7315 0.5 37.293 3.93849 37.293 8.18007C37.293 12.4217 40.7315 15.8601 44.973 15.8601Z" fill="#76C5B9"/>
<path d="M88.4285 13.8546C87.7136 12.1067 85.7167 11.2691 83.9687 11.9842L69.0851 18.0722L54.7461 18.7073H35.1188L20.9152 18.0722L6.03155 11.984C4.28375 11.2693 2.28687 12.1065 1.57179 13.8545C0.856887 15.6024 1.69431 17.5991 3.44228 18.3142L18.8664 24.6234C19.2241 24.7698 19.6042 24.8542 19.99 24.8737L35.1188 25.6313V46.3421L23.6081 58.719C21.4059 61.0866 22.3937 64.9442 25.4582 65.9655C46.767 73.067 45.2804 72.6128 45.9334 72.6935V86.0534C45.9334 88.5091 47.9242 90.4998 50.3798 90.4998C52.8355 90.4998 54.786 88.5091 54.786 86.0534C54.786 85.0095 54.786 25.638 54.786 25.638L70.0101 24.8737C70.3959 24.8544 70.776 24.7698 71.1337 24.6234L86.5578 18.3142C88.3059 17.5991 89.1434 15.6026 88.4285 13.8546ZM45.9336 63.4156L34.8272 59.7141C43.5574 50.3269 42.9759 50.9938 43.2902 50.5121C43.6209 50.5121 45.6026 50.5121 45.9338 50.5121V63.4156H45.9336Z" fill="#76C5B9"/>
</g>
<defs>
<clipPath id="clip0_314_867">
<rect width="90" height="90" fill="white" transform="translate(0 0.5)"/>
</clipPath>
</defs>
</svg>
