<svg width="107" height="107" viewBox="0 0 107 107" fill="none" xmlns="http://www.w3.org/2000/svg">
<path d="M49.2335 25.4651C56.2655 25.4651 61.9661 19.7646 61.9661 12.7326C61.9661 5.70056 56.2655 0 49.2335 0C42.2015 0 36.501 5.70056 36.501 12.7326C36.501 19.7646 42.2015 25.4651 49.2335 25.4651Z" fill="#76C5B9"/>
<path d="M82.0699 92.3756C74.097 90.1426 76.4644 90.8057 69.9516 88.9819C73.2278 86.2528 73.0146 81.1833 69.57 78.7271L51.9813 66.1853L50.0224 42.8843L54.7848 56.5577L54.7116 40.4325C54.6853 34.6217 49.9533 29.9323 44.1425 29.9586C35.4097 29.9981 28.3621 37.1096 28.4016 45.8426C28.4041 46.4121 28.5905 87.528 28.5934 88.1399L28.6444 88.1397C28.8281 89.6114 29.4463 90.9907 30.4053 92.0996H26.9393C22.8249 92.0996 19.4893 95.4352 19.4893 99.5496C19.4893 103.664 22.8251 107 26.9393 107H80.0612C83.784 107 86.9351 104.252 87.4419 100.564C87.9484 96.8755 85.6548 93.3794 82.0699 92.3756ZM37.7724 77.618C35.329 75.8757 34.2306 72.9439 34.6941 70.1709L37.7791 51.9159L39.3214 70.2607C39.4809 72.1573 40.4662 73.8879 42.0159 74.9928L56.2556 85.1465C56.2556 85.1465 39.8604 79.1066 37.7724 77.618Z" fill="#76C5B9"/>
</svg>
