<svg width="150" height="150" viewBox="0 0 150 150" fill="none" xmlns="http://www.w3.org/2000/svg">
<g clip-path="url(#clip0_314_1545)">
<path d="M149.236 103.001L131.608 69.8733C129.933 66.7242 126.022 65.5303 122.872 67.2052C119.723 68.8807 118.528 72.7925 120.205 75.9416L132.78 99.576H132.65L132.76 99.7312H107.464L108.103 99.576L122.868 95.9912L113.966 79.2615C110.456 72.6665 112.958 64.476 119.553 60.9668C121.527 59.9165 123.543 59.4085 125.634 59.3833C125.631 58.9629 125.634 37.5715 125.634 37.5715C124.068 30.6155 115.612 27.7705 110.123 32.2872C92.4 46.8665 89.9177 48.9085 72.7468 63.0337L6.45238 85.9175C1.45433 87.6419 -1.1985 93.092 0.526497 98.0891C2.2512 103.086 7.69954 105.739 12.6988 104.014L80.6209 80.5687C81.6976 80.1972 82.6992 79.6362 83.579 78.9129L115.383 52.7499L93.7383 77.8172L93.8543 103.431C93.8754 108.095 97.5141 112.365 103.156 112.339C104.2 112.569 101.328 112.494 143.534 112.494C148.391 112.494 151.526 107.305 149.236 103.001Z" fill="#76C5B9"/>
<path d="M71.1168 87.1778C62.0684 87.2188 54.7905 94.5978 54.8312 103.612C54.8722 112.647 62.2299 119.938 71.265 119.897C80.3002 119.856 87.5913 112.498 87.5506 103.463C87.5095 94.3957 80.1094 87.1371 71.1168 87.1778Z" fill="#76C5B9"/>
</g>
<defs>
<clipPath id="clip0_314_1545">
<rect width="150" height="150" fill="white" transform="translate(0 0.000244141)"/>
</clipPath>
</defs>
</svg>
