<svg width="90" height="91" viewBox="0 0 90 91" fill="none" xmlns="http://www.w3.org/2000/svg">
<g clip-path="url(#clip0_64_1247)">
<path d="M78.0439 76.7673C77.6347 74.1458 75.178 72.3522 72.5566 72.7612L55.3342 73.448V49.6555C55.5629 49.1158 54.9507 52.0253 64.2226 4.86852C64.6126 2.8843 63.3205 0.959844 61.3363 0.569434C59.3517 0.179551 57.4276 1.47154 57.0372 3.45576L52.4254 26.911C51.1842 24.038 48.3262 22.0267 44.9976 22.0267C41.6655 22.0267 38.8046 24.0422 37.5657 26.9201L32.9523 3.45576C32.5621 1.47189 30.6382 0.179551 28.6533 0.569434C26.669 0.959493 25.377 2.8843 25.7669 4.86852C35.0378 52.0197 34.4259 49.1192 34.6615 49.669V73.4323L17.4391 72.7612C14.9397 72.3784 12.5332 74.0084 12.0027 76.5131C11.4529 79.1087 13.1114 81.6587 15.7071 82.2086L21.4105 83.4167C20.7461 84.2496 20.3794 85.3231 20.4673 86.4692C20.6521 88.8772 22.7553 90.6721 25.1529 90.487C46.0436 88.884 44.6617 89.0015 44.9977 88.9401C45.3931 89.0122 64.9443 90.5 65.181 90.5C67.4396 90.5 69.3522 88.7587 69.5278 86.469C69.6159 85.321 69.2478 84.2455 68.5811 83.4122L74.288 82.2087C76.7655 81.6814 78.4392 79.2999 78.0439 76.7673ZM49.4411 42.09H40.5489L39.3285 35.8823C40.7881 37.3177 42.7894 38.204 44.9981 38.204C47.2033 38.204 49.2014 37.3205 50.6605 35.8893L49.4411 42.09Z" fill="#76C5B9"/>
</g>
<defs>
<clipPath id="clip0_64_1247">
<rect width="90" height="90" fill="white" transform="translate(0 0.5)"/>
</clipPath>
</defs>
</svg>
