<svg width="150" height="150" viewBox="0 0 150 150" fill="none" xmlns="http://www.w3.org/2000/svg">
<g clip-path="url(#clip0_314_771)">
<path d="M102.049 22.0343L85.7026 1.84161C84.2132 0.00146643 81.6834 -0.49336 79.6458 0.50889C77.6082 -0.493653 75.0784 0.00175938 73.5889 1.84161L57.2427 22.034C56.1607 23.3702 55.8461 25.1702 56.4098 26.7941L65.3181 52.4662V85.7678L48.5746 103.771C47.0763 105.382 46.4998 107.644 47.0438 109.776C47.5881 111.908 49.1787 113.616 51.2658 114.312C82.2764 124.647 80.1002 123.981 81.0491 124.099V143.532C81.0491 147.104 83.9448 150 87.5167 150C91.0889 150 93.9843 147.104 93.9843 143.532C93.9843 57.1663 93.8671 107.764 93.8671 52.7706L102.882 26.7944C103.445 25.1705 103.131 23.3705 102.049 22.0343ZM81.0494 110.603L64.8942 105.219C77.6035 91.5534 76.7504 92.5296 77.2045 91.8341H81.0497L81.0494 110.603ZM85.8368 45.5709H73.4556L70.2151 36.2319C72.1959 39.3541 75.6807 41.428 79.6519 41.428C83.6064 41.428 87.0787 39.3711 89.0639 36.2708L85.8368 45.5709ZM90.7675 31.3592C90.803 30.9965 90.822 30.6291 90.822 30.2571C90.822 24.0877 85.8207 19.0861 79.6511 19.0861C73.4817 19.0861 68.4801 24.0874 68.4801 30.2571C68.4801 30.6435 68.4998 31.0255 68.5381 31.4017L66.7138 26.1449L79.6455 10.171L92.5766 26.1449L90.7675 31.3592Z" fill="#76C5B9"/>
</g>
<defs>
<clipPath id="clip0_314_771">
<rect width="150" height="150" fill="white"/>
</clipPath>
</defs>
</svg>
