<svg width="22" height="22" viewBox="0 0 22 22" fill="none" xmlns="http://www.w3.org/2000/svg">
<g clip-path="url(#clip0_106_838)">
<path d="M4.58333 2.75H17.4167C17.9029 2.75 18.3692 2.94315 18.713 3.28697C19.0568 3.63079 19.25 4.0971 19.25 4.58333V17.4167C19.25 17.9029 19.0568 18.3692 18.713 18.713C18.3692 19.0568 17.9029 19.25 17.4167 19.25H4.58333C4.0971 19.25 3.63079 19.0568 3.28697 18.713C2.94315 18.3692 2.75 17.9029 2.75 17.4167V4.58333C2.75 4.0971 2.94315 3.63079 3.28697 3.28697C3.63079 2.94315 4.0971 2.75 4.58333 2.75ZM16.5 4.58333H14.2083C13.3574 4.58333 12.5414 4.92135 11.9397 5.52303C11.338 6.12471 11 6.94076 11 7.79167V10.0833H9.16667V12.8333H11V19.25H13.75V12.8333H16.5V10.0833H13.75V8.25C13.75 8.00689 13.8466 7.77373 14.0185 7.60182C14.1904 7.42991 14.4236 7.33333 14.6667 7.33333H16.5V4.58333Z" fill="#76C5B9"/>
</g>
<defs>
<clipPath id="clip0_106_838">
<rect width="22" height="22" fill="white"/>
</clipPath>
</defs>
</svg>
