<svg width="22" height="22" viewBox="0 0 22 22" fill="none" xmlns="http://www.w3.org/2000/svg">
<g clip-path="url(#clip0_106_835)">
<path d="M17.4167 2.75C17.9029 2.75 18.3692 2.94315 18.713 3.28697C19.0568 3.63079 19.25 4.0971 19.25 4.58333V17.4167C19.25 17.9029 19.0568 18.3692 18.713 18.713C18.3692 19.0568 17.9029 19.25 17.4167 19.25H4.58333C4.0971 19.25 3.63079 19.0568 3.28697 18.713C2.94315 18.3692 2.75 17.9029 2.75 17.4167V4.58333C2.75 4.0971 2.94315 3.63079 3.28697 3.28697C3.63079 2.94315 4.0971 2.75 4.58333 2.75H17.4167ZM16.9583 16.9583V12.1C16.9583 11.3074 16.6435 10.5474 16.0831 9.98693C15.5226 9.42651 14.7626 9.11167 13.97 9.11167C13.5462 9.12626 13.132 9.24205 12.762 9.44935C12.3921 9.65666 12.0771 9.94947 11.8433 10.3033V9.28583H9.28583V16.9583H11.8433V12.4392C11.8283 12.2621 11.8503 12.0839 11.9077 11.9158C11.9652 11.7477 12.0569 11.5933 12.1771 11.4625C12.2973 11.3317 12.4434 11.2272 12.606 11.1558C12.7687 11.0844 12.9444 11.0475 13.1221 11.0475C13.2997 11.0475 13.4755 11.0844 13.6381 11.1558C13.8008 11.2272 13.9469 11.3317 14.0671 11.4625C14.1873 11.5933 14.279 11.7477 14.3365 11.9158C14.3939 12.0839 14.4158 12.2621 14.4008 12.4392V16.9583H16.9583ZM6.30667 7.84667C6.7151 7.84667 7.10681 7.68442 7.39561 7.39561C7.68442 7.10681 7.84667 6.7151 7.84667 6.30667C7.86308 6.09382 7.83532 5.87989 7.76514 5.67828C7.69495 5.47667 7.58386 5.29175 7.43883 5.1351C7.2938 4.97846 7.11796 4.85348 6.92234 4.76801C6.72673 4.68254 6.51556 4.63842 6.30208 4.63842C6.08861 4.63842 5.87744 4.68254 5.68182 4.76801C5.48621 4.85348 5.31037 4.97846 5.16534 5.1351C5.0203 5.29175 4.90921 5.47667 4.83903 5.67828C4.76885 5.87989 4.74109 6.09382 4.7575 6.30667C4.75992 6.71594 4.92421 7.10763 5.21447 7.39617C5.50473 7.68472 5.89739 7.84667 6.30667 7.84667ZM7.58083 16.9583V9.28583H5.04167V16.9583H7.58083Z" fill="#76C5B9"/>
</g>
<defs>
<clipPath id="clip0_106_835">
<rect width="22" height="22" fill="white"/>
</clipPath>
</defs>
</svg>
