<svg xmlns="http://www.w3.org/2000/svg" width="45" height="45" fill="none" viewBox="0 0 45 45">
  <path stroke="#76C5B9" stroke-linecap="round" stroke-linejoin="round" stroke-width="3" d="M5.625 10.313c0 16.05 13.012 29.062 29.063 29.062.724 0 1.442-.026 2.153-.079.815-.06 1.223-.09 1.595-.303.307-.177.599-.49.753-.81.186-.386.186-.837.186-1.737v-5.282c0-.757 0-1.136-.125-1.46a1.873 1.873 0 0 0-.52-.744c-.262-.227-.618-.357-1.33-.616l-6.012-2.186c-.828-.301-1.242-.452-1.635-.426-.346.022-.68.14-.963.341-.32.228-.547.605-1 1.36L26.25 30A22.69 22.69 0 0 1 15 18.75l2.566-1.54c.756-.453 1.133-.68 1.36-1 .201-.284.32-.617.342-.963.026-.393-.125-.807-.426-1.634L16.656 7.6c-.26-.712-.389-1.067-.616-1.33a1.875 1.875 0 0 0-.744-.52c-.324-.125-.703-.125-1.46-.125H8.554c-.9 0-1.35 0-1.737.186-.32.154-.633.446-.81.753-.214.372-.244.78-.303 1.595a29.48 29.48 0 0 0-.079 2.153Z"/>
</svg>
