<svg width="39" height="39" viewBox="0 0 39 39" fill="none" xmlns="http://www.w3.org/2000/svg">
<g clip-path="url(#clip0_368_1249)">
<path d="M35.8357 27.4122C35.8357 26.5243 35.4899 25.689 34.8617 25.0613L23.7922 13.9913C25.5206 12.5973 26.6505 10.4883 26.6505 8.1C26.6505 3.90924 23.2412 0.5 19.0505 0.5C14.8597 0.5 11.4505 3.90924 11.4505 8.1C11.4505 10.4883 12.5803 12.5967 14.3087 13.9913L3.2387 25.0613C2.61043 25.6895 2.26465 26.5243 2.26465 27.4122C2.26465 28.3002 2.61043 29.1355 3.2387 29.7632C3.74977 30.2743 4.40022 30.5859 5.10196 30.6891C5.04243 30.8811 4.97972 31.0723 4.94424 31.2744C4.72381 32.5239 5.00317 33.7843 5.73081 34.8236C6.45845 35.8629 7.54724 36.5564 8.79679 36.7768L18.1524 38.4266C18.4266 38.4754 18.7053 38.5001 18.9814 38.5001C19.0011 38.5001 19.0187 38.4931 19.0384 38.4931C19.0662 38.4931 19.0916 38.5001 19.1194 38.5001C19.3956 38.5001 19.6742 38.4754 19.9479 38.4273L29.3034 36.7775C30.553 36.557 31.6417 35.8635 32.3694 34.8242C33.0971 33.785 33.3764 32.5247 33.156 31.275C33.1205 31.0723 33.0578 30.8817 32.9983 30.6898C33.7006 30.5866 34.351 30.2743 34.8615 29.7639C35.4899 29.1355 35.8357 28.3002 35.8357 27.4122ZM13.3505 8.1C13.3505 4.95171 15.9022 2.4 19.0505 2.4C22.1988 2.4 24.7505 4.95171 24.7505 8.1C24.7505 11.2483 22.1988 13.8 19.0505 13.8C15.9022 13.8 13.3505 11.2483 13.3505 8.1ZM14.4449 34.5746C14.5304 35.0597 14.7001 35.5088 14.9161 35.9274L9.12743 34.9064C7.577 34.6328 6.54217 33.1552 6.81574 31.6049C7.05955 30.2223 8.26227 29.2495 9.61891 29.2495C9.78293 29.2495 9.94948 29.2641 10.1174 29.2932L15.8591 30.306C14.7426 31.3668 14.158 32.947 14.4449 34.5746ZM28.9729 34.9065L19.6174 36.5563C19.4501 36.5855 19.2836 36.6 19.1196 36.6C17.7623 36.6 16.5596 35.6272 16.3164 34.2447C16.0428 32.6942 17.0783 31.2167 18.6281 30.9431L27.9837 29.2933C28.1509 29.2635 28.3174 29.2496 28.4821 29.2496C29.8394 29.2496 31.0414 30.2224 31.2852 31.6049C31.5582 33.1547 30.5234 34.6335 28.9729 34.9065ZM33.5184 28.4198C33.2404 28.6979 32.8756 28.8372 32.5107 28.8372C32.1459 28.8372 31.7811 28.6979 31.5031 28.4198L23.7954 20.728C23.4243 20.3569 22.8226 20.3569 22.4521 20.728C22.0816 21.0992 22.0811 21.7008 22.4521 22.0713L27.8006 27.409C27.7519 27.416 27.7019 27.4135 27.6537 27.4217L19.0505 28.9392L10.4473 27.4224C10.3985 27.4136 10.3491 27.4167 10.3003 27.4097L15.6488 22.072C16.02 21.7008 16.02 21.0992 15.6488 20.7287C15.2776 20.3582 14.676 20.3576 14.3055 20.7287L6.59791 28.4205C6.31989 28.6985 5.9551 28.8378 5.59024 28.8378C5.22546 28.8378 4.86067 28.6985 4.58257 28.4205C4.02586 27.8638 4.02586 26.962 4.58257 26.4052L15.9591 15.0287C16.9059 15.4524 17.9478 15.7 19.0504 15.7C20.1531 15.7 21.1949 15.4524 22.1417 15.028L33.5184 26.4046C34.0751 26.9613 34.0751 27.8632 33.5184 28.4198Z" fill="#76C5B9"/>
</g>
<defs>
<clipPath id="clip0_368_1249">
<rect width="38" height="38" fill="white" transform="translate(0.0498047 0.5)"/>
</clipPath>
</defs>
</svg>
