<svg width="46" height="46" viewBox="0 0 46 46" fill="none" xmlns="http://www.w3.org/2000/svg">
<path d="M5.6748 17.375H39.4248M13.1748 6.125V9.875M31.9248 6.125V9.875M11.2998 23H15.0498M20.6748 23H24.4248M30.0498 23H33.7998M11.2998 28.625H15.0498M20.6748 28.625H24.4248M30.0498 28.625H33.7998M11.2998 34.25H15.0498M20.6748 34.25H24.4248M30.0498 34.25H33.7998M11.6748 39.875H33.4248C35.525 39.875 36.5752 39.875 37.3773 39.4662C38.0829 39.1068 38.6566 38.5331 39.0161 37.8275C39.4248 37.0254 39.4248 35.9752 39.4248 33.875V15.875C39.4248 13.7748 39.4248 12.7247 39.0161 11.9225C38.6566 11.2169 38.0829 10.6432 37.3773 10.2837C36.5752 9.875 35.525 9.875 33.4248 9.875H11.6748C9.57462 9.875 8.5245 9.875 7.72234 10.2837C7.01672 10.6432 6.44305 11.2169 6.08354 11.9225C5.6748 12.7247 5.6748 13.7748 5.6748 15.875V33.875C5.6748 35.9752 5.6748 37.0254 6.08354 37.8275C6.44305 38.5331 7.01672 39.1068 7.72234 39.4662C8.5245 39.875 9.5746 39.875 11.6748 39.875Z" stroke="#76C5B9" stroke-width="3" stroke-linecap="round"/>
</svg>
