<svg width="46" height="46" viewBox="0 0 46 46" fill="none" xmlns="http://www.w3.org/2000/svg">
<path d="M5.6748 10.8125C5.6748 26.8633 18.6865 39.875 34.7373 39.875C35.4614 39.875 36.1794 39.8486 36.8904 39.7964C37.7062 39.7366 38.114 39.7068 38.4854 39.4931C38.7929 39.3161 39.0845 39.0022 39.2386 38.6825C39.4248 38.2966 39.4248 37.8464 39.4248 36.9462V31.6638C39.4248 30.9067 39.4248 30.5281 39.3001 30.2038C39.1902 29.9171 39.0114 29.6619 38.7796 29.4605C38.5173 29.2325 38.1614 29.1031 37.4501 28.8444L31.4373 26.6579C30.6095 26.357 30.1955 26.2064 29.8029 26.2319C29.4566 26.2544 29.1234 26.3727 28.8402 26.5734C28.5192 26.8008 28.2927 27.1784 27.8396 27.9339L26.2998 30.5C21.3312 28.2498 17.3034 24.2167 15.0498 19.25L17.616 17.7103C18.3713 17.2571 18.7489 17.0305 18.9764 16.7095C19.1771 16.4264 19.2954 16.0932 19.3179 15.7469C19.3434 15.3543 19.1928 14.9404 18.8919 14.1126L16.7054 8.09977C16.4467 7.3883 16.3173 7.03256 16.0893 6.77019C15.8879 6.53842 15.6327 6.35966 15.3461 6.24959C15.0216 6.125 14.6431 6.125 13.886 6.125H8.60357C7.70333 6.125 7.2532 6.125 6.86727 6.31109C6.54762 6.46524 6.23382 6.75689 6.05674 7.06443C5.84295 7.43576 5.81309 7.84366 5.75335 8.65949C5.7013 9.37036 5.6748 10.0883 5.6748 10.8125Z" stroke="#76C5B9" stroke-width="3" stroke-linecap="round" stroke-linejoin="round"/>
</svg>
