<svg width="22" height="22" viewBox="0 0 22 22" fill="none" xmlns="http://www.w3.org/2000/svg">
<g clip-path="url(#clip0_106_832)">
<path d="M4.58333 2.75H17.4167C17.9029 2.75 18.3692 2.94315 18.713 3.28697C19.0568 3.63079 19.25 4.0971 19.25 4.58333V17.4167C19.25 17.9029 19.0568 18.3692 18.713 18.713C18.3692 19.0568 17.9029 19.25 17.4167 19.25H4.58333C4.0971 19.25 3.63079 19.0568 3.28697 18.713C2.94315 18.3692 2.75 17.9029 2.75 17.4167V4.58333C2.75 4.0971 2.94315 3.63079 3.28697 3.28697C3.63079 2.94315 4.0971 2.75 4.58333 2.75ZM16.2342 8.5525C16.7115 8.20585 17.1137 7.76619 17.4167 7.26C17.0013 7.4596 16.5549 7.58671 16.0967 7.63583C16.5757 7.30966 16.936 6.83681 17.1233 6.28833C16.6448 6.56526 16.1248 6.76335 15.5833 6.875C15.207 6.47244 14.7079 6.2059 14.1641 6.11702C13.6202 6.02815 13.0622 6.12196 12.5773 6.38378C12.0924 6.64561 11.7079 7.0607 11.4839 7.56419C11.2599 8.06767 11.209 8.63119 11.3392 9.16667C10.3606 9.11045 9.40478 8.84972 8.53324 8.40132C7.66169 7.95291 6.89382 7.32679 6.27917 6.56333C5.99816 7.10892 5.91674 7.73558 6.04898 8.33486C6.18122 8.93415 6.51882 9.46834 7.00333 9.845C6.63806 9.81625 6.28248 9.71332 5.95833 9.5425C5.94399 10.1091 6.12599 10.6632 6.47348 11.1109C6.82097 11.5587 7.31259 11.8725 7.865 11.9992C7.51923 12.0589 7.16578 12.0589 6.82 11.9992C6.96542 12.4902 7.26124 12.9233 7.66578 13.2374C8.07032 13.5515 8.5632 13.7308 9.075 13.75C8.05759 14.5327 6.7751 14.8878 5.5 14.74C6.65017 15.5329 8.02769 15.9288 9.42333 15.8675C13.4658 15.6842 16.17 12.8333 16.2342 8.5525Z" fill="#76C5B9"/>
</g>
<defs>
<clipPath id="clip0_106_832">
<rect width="22" height="22" fill="white"/>
</clipPath>
</defs>
</svg>
