<!DOCTYPE svg PUBLIC "-//W3C//DTD SVG 1.1//EN" "http://www.w3.org/Graphics/SVG/1.1/DTD/svg11.dtd">
<!-- Uploaded to: SVG Repo, www.svgrepo.com, Transformed by: SVG Repo Mixer Tools -->
<svg fill="#76C5B9" height="800px" width="800px" version="1.1" id="Layer_1" xmlns="http://www.w3.org/2000/svg" xmlns:xlink="http://www.w3.org/1999/xlink" viewBox="0 0 512 512" xml:space="preserve">
<g id="SVGRepo_bgCarrier" stroke-width="0"/>
<g id="SVGRepo_tracerCarrier" stroke-linecap="round" stroke-linejoin="round"/>
<g id="SVGRepo_iconCarrier"> <g> <g> <circle cx="176.478" cy="56.286" r="56.286"/> </g> </g> <g> <g> <path d="M406.04,134.726c-265.549,0-230.566,0.109-253.372-0.29c-38.753-0.677-71.363,30.254-71.968,69.02 c0,0-0.431,163.508,0,163.581c1.494,16.576,14.781,29.57,31.746,29.57h80.265l-73.994,57.121 c-14.22,10.976-16.848,31.401-5.871,45.62c10.976,14.221,31.401,16.847,45.62,5.871l149.477-115.391 c11.016-8.504,15.402-23.074,10.91-36.245c-4.493-13.171-16.868-22.025-30.783-22.025l-139.21-0.438l60.044-10.849V200.37 l-69.284-14.524l266.421-0.213c14.057,0,25.453-11.396,25.453-25.453C431.492,146.123,420.097,134.726,406.04,134.726z"/> </g> </g> </g>
</svg>