<!DOCTYPE svg PUBLIC "-//W3C//DTD SVG 1.1//EN" "http://www.w3.org/Graphics/SVG/1.1/DTD/svg11.dtd">
<!-- Uploaded to: SVG Repo, www.svgrepo.com, Transformed by: SVG Repo Mixer Tools -->
<svg fill="#76C5B9" height="800px" width="800px" version="1.1" id="Layer_1" xmlns="http://www.w3.org/2000/svg" xmlns:xlink="http://www.w3.org/1999/xlink" viewBox="0 0 512 512" xml:space="preserve">
<g id="SVGRepo_bgCarrier" stroke-width="0"/>
<g id="SVGRepo_tracerCarrier" stroke-linecap="round" stroke-linejoin="round"/>
<g id="SVGRepo_iconCarrier"> <g> <g> <path d="M361.816,157.046c-17.621-25.124-52.273-31.207-77.397-13.586c-26.702,18.728-31.757,56.527-10.283,81.648l77.586,6.655 C373.872,213.486,378.586,180.958,361.816,157.046z"/> </g> </g> <g> <g> <path d="M477.518,308.999c-0.018,0-0.037,0-0.054,0l-16.253,0.024c9.071-4.976,15.14-14.742,14.792-25.897 c-0.483-15.498-13.706-27.576-29.21-27.576h-99.366l-158.639-36.235l54.842,3.176c-29.481-33.207-79.81-39.77-117.054-13.681 L23.963,279.913C4.406,293.462-4.706,318.142,2.4,340.848c7.033,22.472,27.85,37.77,51.398,37.77c0.018,0,0.037,0,0.054,0 l422.886-0.65c19.081-0.029,35.401-15.661,35.261-34.741C511.861,324.297,496.461,308.999,477.518,308.999z M214.789,309.403 l21.17-11.295l-60.461-26.294l151.5,37.416C306.005,309.262,235.668,309.371,214.789,309.403z"/> </g> </g> </g>
</svg>