<!DOCTYPE svg PUBLIC "-//W3C//DTD SVG 1.1//EN" "http://www.w3.org/Graphics/SVG/1.1/DTD/svg11.dtd">
<!-- Uploaded to: SVG Repo, www.svgrepo.com, Transformed by: SVG Repo Mixer Tools -->
<svg fill="#76C5B9" height="800px" width="800px" version="1.1" id="Layer_1" xmlns="http://www.w3.org/2000/svg" xmlns:xlink="http://www.w3.org/1999/xlink" viewBox="0 0 512 512" xml:space="preserve">
<g id="SVGRepo_bgCarrier" stroke-width="0"/>
<g id="SVGRepo_tracerCarrier" stroke-linecap="round" stroke-linejoin="round"/>
<g id="SVGRepo_iconCarrier"> <g> <g> <path d="M343.532,109.054l-3.548,82.776c21.799-1.298,39.099-19.36,39.139-41.493 C379.161,129.366,363.694,111.994,343.532,109.054z"/> </g> </g> <g> <g> <path d="M430.639,353.336H372.78l0.217-118.899c0.024-13.276-10.718-24.059-23.995-24.083c-3.344-0.006-6.628,0.241-9.843,0.709 c-0.964,22.481-0.953,22.21-1.689,39.41c-0.506-7.574-17.346-232.922-17.346-232.922c-0.841-10.502-10.057-18.328-20.536-17.489 c-10.501,0.841-18.33,10.036-17.489,20.536l16.992,211.993c-10.598,11.811-17.066,27.408-17.097,44.526l-0.15,82.222 L70.368,465.875c-12.011,6.075-16.823,20.738-10.747,32.749c6.076,12.013,20.741,16.821,32.747,10.747l212.975-107.293h100.924 v85.549c0,13.46,10.911,24.372,24.371,24.372c13.46,0,24.371-10.912,24.371-24.372V377.706 C455.01,364.246,444.099,353.336,430.639,353.336z"/> </g> </g> </g>
</svg>